# Blender v2.91.2 OBJ File: ''
# www.blender.org
mtllib arch.mtl
o Cube.001
v 0.555649 4.621502 1.460134
v -0.555649 4.621502 1.460134
v -0.555649 4.621501 2.571433
v 0.555649 4.621501 2.571433
v 0.555649 3.600056 2.571433
v -0.555649 3.600056 2.571433
v -0.555649 3.600057 1.460134
v -0.555649 -0.000000 1.460133
v 0.555649 -0.000000 1.460133
v 0.555649 -0.000000 2.571432
v -0.555649 -0.000000 2.571432
v 0.555649 3.600057 1.460134
v -0.555649 3.600057 -1.676776
v -0.555649 3.600057 -2.701708
v -0.555649 0.000000 -2.701708
v -0.555649 0.000000 -1.676777
v -0.555649 4.621502 -2.701707
v 0.555649 4.621502 -2.701707
v 0.555649 3.600057 -2.701708
v 0.555649 4.621502 -1.676776
v 0.555649 3.600057 -1.676776
v -0.555649 4.621502 -1.676776
v 0.555649 0.000000 -1.676777
v 0.555649 0.000000 -2.701708
vt 0.892673 0.401943
vt 1.000000 0.401943
vt 1.000000 0.509270
vt 0.892673 0.509270
vt 0.048268 0.630067
vt 0.048268 0.531418
vt 0.155596 0.531418
vt 0.155596 0.630067
vt 0.006879 0.701441
vt 0.007699 -0.002534
vt 0.236365 -0.001854
vt 0.235545 0.702120
vt 0.536636 0.509270
vt 0.643963 0.509270
vt 0.643963 0.616598
vt 0.536636 0.616598
vt 0.245912 0.591931
vt 0.248271 -0.008035
vt 0.002016 -0.010318
vt 0.006791 0.577202
vt -0.022132 1.004286
vt -0.022132 0.630228
vt 0.618202 0.630228
vt 0.618202 1.004287
vt 0.007949 0.989840
vt 0.007949 0.642153
vt 0.115276 0.642153
vt 0.115276 0.989840
vt -0.005210 0.611679
vt 0.536367 0.611679
vt 0.536367 1.003318
vt -0.009043 1.003318
vt 0.996002 0.998099
vt 0.387519 0.998099
vt 0.387519 0.636585
vt 0.996002 0.636585
vt 0.107327 0.955607
vt 0.107327 0.607920
vt 0.214654 0.607920
vt 0.214654 0.955607
vt 0.000000 0.607920
vt 0.000000 0.509271
vt 0.107327 0.509271
vt 0.107327 0.607920
vt 0.773629 -0.011314
vt 0.767959 0.592828
vt 1.009629 0.607378
vt 1.015299 0.003236
vt 1.000000 0.098986
vt 0.892673 0.098986
vt 0.892673 0.000000
vt 1.000000 0.000000
vt 0.790521 0.693301
vt 0.788287 0.003645
vt 0.988251 -0.003727
vt 0.990485 0.685929
vt 0.232518 0.698120
vt 0.225417 0.005724
vt 0.773569 0.004594
vt 0.780670 0.696989
vt 0.250227 -0.007296
vt 0.250857 0.590272
vt 0.754944 0.599456
vt 0.759566 -0.001429
vt 0.536636 0.812228
vt 0.429309 0.812228
vt 0.429309 0.509271
vt 0.536636 0.509271
vt 0.536636 0.723925
vt 0.536636 0.616598
vt 0.635622 0.616598
vt 0.635622 0.723925
vt 0.321982 0.509270
vt 0.429309 0.856957
vt 0.321982 0.856957
vt 0.357955 1.004833
vt 0.351236 0.599476
vt 1.003573 0.595231
vt 1.010293 1.000587
vt 0.107327 0.955607
vt 0.000000 0.955607
vn 0.0000 1.0000 0.0000
vn 0.0000 -0.0000 1.0000
vn -1.0000 -0.0000 0.0000
vn 0.0000 -1.0000 -0.0000
vn 1.0000 0.0000 0.0000
vn 0.0000 0.0000 -1.0000
usemtl Material.001
s 1
f 1/1/1 2/2/1 3/3/1 4/4/1
f 5/5/2 4/6/2 3/7/2 6/8/2
f 6/9/3 3/10/3 2/11/3 7/12/3
f 8/13/4 9/14/4 10/15/4 11/16/4
f 12/17/5 1/18/5 4/19/5 5/20/5
f 13/21/3 14/22/3 15/23/3 16/24/3
f 8/25/6 7/26/6 12/27/6 9/28/6
f 9/29/5 12/30/5 5/31/5 10/32/5
f 11/33/3 6/34/3 7/35/3 8/36/3
f 10/37/2 5/38/2 6/39/2 11/40/2
f 14/41/6 17/42/6 18/43/6 19/44/6
f 20/45/5 21/46/5 19/47/5 18/48/5
f 22/49/1 20/50/1 18/51/1 17/52/1
f 13/53/3 22/54/3 17/55/3 14/56/3
f 7/57/3 2/58/3 22/59/3 13/60/3
f 2/2/1 1/1/1 20/50/1 22/49/1
f 1/61/5 12/62/5 21/63/5 20/64/5
f 12/65/4 7/66/4 13/67/4 21/68/4
f 23/69/4 16/70/4 15/71/4 24/72/4
f 21/73/2 13/67/2 16/74/2 23/75/2
f 19/76/5 21/77/5 23/78/5 24/79/5
f 14/41/6 19/44/6 24/80/6 15/81/6
